<svg width="32" height="32" viewBox="0 0 512 512" fill="none" xmlns="http://www.w3.org/2000/svg">
  <defs>
    <linearGradient id="fav-bg" x1="0" y1="0" x2="512" y2="512" gradientUnits="userSpaceOnUse">
      <stop offset="0%" stop-color="#0F172A"/>
      <stop offset="100%" stop-color="#1E293B"/>
    </linearGradient>
    <linearGradient id="fav-accent" x1="380" y1="60" x2="440" y2="120" gradientUnits="userSpaceOnUse">
      <stop offset="0%" stop-color="#F97316"/>
      <stop offset="100%" stop-color="#EA580C"/>
    </linearGradient>
  </defs>
  <rect width="512" height="512" rx="96" fill="url(#fav-bg)"/>
  <g transform="translate(256, 256) scale(1.5) translate(-167, -95)">
    <g transform="scale(2.9464285714285716,2.9464285714285716) translate(19.599999999999994,27.099999999999994)">
      <g transform="translate(0.000000,125.000000) scale(0.100000,-0.100000)" fill="#60A5FA" stroke="none">
        <path d="M368 1213 c-42 -28 -47 -50 -22 -88 18 -28 19 -28 -57 -25 -102 3 -159 -41 -144 -112 6 -26 17 -34 40 -28 6 2 88 6 182 11 141 7 178 11 200 26 16 11 37 24 48 29 12 7 21 23 23 43 4 35 -5 38 -51 17 -35 -16 -102 -27 -110 -19 -3 2 4 14 15 25 16 16 19 28 14 62 -15 89 -64 110 -138 59z"/>
        <path d="M739 980 c-13 -8 -16 -22 -13 -67 2 -33 -5 -92 -16 -138 -25 -111 -31 -177 -22 -270 6 -67 10 -80 26 -83 10 -2 23 3 28 12 5 9 18 16 29 16 19 0 18 -4 -12 -59 -18 -33 -59 -91 -91 -128 -32 -37 -56 -74 -53 -81 3 -8 5 -23 5 -33 0 -16 5 -19 23 -14 12 4 29 16 37 28 8 12 32 41 53 65 20 24 37 49 37 57 0 22 64 125 78 125 18 0 15 -31 -8 -67 -20 -33 -24 -55 -22 -110 1 -21 7 -33 16 -33 8 0 16 -5 18 -11 2 -7 28 -12 63 -12 44 1 72 -6 105 -23 129 -68 181 -86 230 -79 69 9 106 52 115 130 3 33 10 64 14 70 12 16 11 56 -1 49 -6 -4 -6 2 1 15 16 28 0 27 -28 -3 -26 -28 -52 -38 -134 -57 -64 -14 -108 -8 -206 29 -57 21 -81 43 -81 74 0 11 -15 28 -35 39 -36 22 -38 39 -4 39 11 0 24 -11 31 -24 10 -23 12 -24 34 -9 13 8 24 12 24 7 0 -5 7 1 15 13 10 14 13 39 11 79 -6 108 30 282 66 321 16 17 19 29 14 58 l-7 37 -52 -3 c-87 -5 -145 0 -159 14 -39 36 -94 47 -129 27z m202 -140 c12 0 15 -7 11 -26 -5 -29 -48 -52 -66 -34 -5 5 -29 10 -51 10 -54 0 -60 8 -33 38 20 21 29 23 73 18 28 -3 57 -6 66 -6z m-60 -140 c54 0 56 -1 52 -24 -5 -22 -7 -23 -46 -14 -23 5 -59 7 -79 5 -31 -4 -38 -2 -38 12 0 25 11 33 35 27 11 -3 45 -6 76 -6z m-35 -115 c16 -8 39 -15 52 -15 12 0 22 -3 22 -8 0 -11 -104 -34 -123 -26 -24 9 -30 37 -11 51 22 16 26 16 60 -2z"/>
        <path d="M505 949 c-22 -4 -54 -11 -71 -15 -26 -5 -31 -11 -32 -35 0 -15 -5 -36 -10 -45 -5 -9 -7 -37 -5 -63 3 -32 1 -42 -5 -32 -6 8 -19 12 -29 9 -18 -5 -19 -2 -10 54 13 78 0 108 -46 108 -18 0 -38 -5 -45 -12 -6 -6 -33 -11 -61 -9 -41 2 -52 -2 -65 -21 -9 -12 -16 -32 -16 -43 0 -11 -7 -33 -15 -49 -30 -56 -13 -156 26 -156 12 0 52 22 61 34 3 5 21 10 40 11 18 1 42 5 53 10 17 7 17 4 -5 -20 -26 -29 -86 -60 -132 -69 -37 -6 -115 -73 -121 -102 -2 -13 -1 -24 2 -24 3 0 11 -10 16 -22 6 -13 15 -23 20 -23 6 0 15 -3 20 -7 14 -8 26 0 46 31 9 15 35 30 71 41 l55 17 7 -103 c7 -114 -1 -168 -39 -246 -27 -56 -33 -119 -12 -136 23 -19 66 -24 102 -12 34 11 37 15 31 42 -3 16 -1 49 5 73 l11 43 71 7 c40 3 86 2 102 -3 25 -8 73 -1 76 10 0 2 3 24 6 50 5 45 4 46 -26 53 -47 10 -34 55 15 55 28 0 35 10 27 38 -4 15 -18 25 -47 34 l-41 11 34 8 c40 8 58 26 63 59 3 22 -1 25 -32 28 -47 5 -60 19 -28 31 62 23 42 111 -21 94 -20 -5 -21 -3 -15 21 4 17 0 35 -11 52 -21 32 -15 38 19 23 23 -11 28 -10 41 7 8 10 15 24 15 29 5 38 9 65 15 98 6 29 4 42 -10 57 -19 21 -35 23 -100 9z m0 -99 c-3 -5 -11 -10 -16 -10 -6 0 -7 5 -4 10 3 6 11 10 16 10 6 0 7 -4 4 -10z m-263 -57 c-7 -3 -16 -2 -19 1 -4 3 2 6 13 5 11 0 14 -3 6 -6z m194 -67 c16 6 17 5 7 -7 -7 -7 -13 -21 -13 -31 0 -13 -8 -18 -31 -18 -26 0 -30 3 -24 18 4 9 10 25 12 35 4 13 9 15 18 7 7 -6 21 -7 31 -4z m-24 -158 c53 -16 48 -42 -10 -46 -41 -3 -42 -2 -42 28 0 34 -1 34 52 18z m18 -151 c0 -5 -14 -7 -31 -3 -17 3 -35 6 -40 6 -5 0 -9 6 -9 14 0 11 8 11 40 3 22 -6 40 -15 40 -20z m-8 -88 c21 -11 21 -12 3 -25 -10 -8 -29 -14 -42 -14 -18 0 -23 6 -23 25 0 28 25 34 62 14z"/>
      </g>
    </g>
  </g>
  <circle cx="415" cy="97" r="18" fill="url(#fav-accent)"/>
</svg>
