<?xml version="1.0" encoding="utf-8"?><!DOCTYPE svg PUBLIC "-//W3C//DTD SVG 1.1//EN" "http://www.w3.org/Graphics/SVG/1.1/DTD/svg11.dtd"><svg version="1.1" xmlns="http://www.w3.org/2000/svg" width="640" height="160" viewBox="0 0 640 160"><g transform="translate(0,0) scale(0.303,0.303)"><g><rect fill="#F9F2DE" width="2112" height="528" x="-0" y="-0" /></g><g transform="translate(0,0)"><g transform="translate(0,0)"><g transform="translate(0,0) scale(1,1)"><g transform="scale(2.9464285714285716,2.9464285714285716) translate(19.599999999999994,27.099999999999994)"><g transform="translate(0.000000,125.000000) scale(0.100000,-0.100000)"
fill="#001dcc" stroke="none">
<path d="M368 1213 c-42 -28 -47 -50 -22 -88 18 -28 19 -28 -57 -25 -102 3
-159 -41 -144 -112 6 -26 17 -34 40 -28 6 2 88 6 182 11 141 7 178 11 200 26
16 11 37 24 48 29 12 7 21 23 23 43 4 35 -5 38 -51 17 -35 -16 -102 -27 -110
-19 -3 2 4 14 15 25 16 16 19 28 14 62 -15 89 -64 110 -138 59z"/>
<path d="M739 980 c-13 -8 -16 -22 -13 -67 2 -33 -5 -92 -16 -138 -25 -111
-31 -177 -22 -270 6 -67 10 -80 26 -83 10 -2 23 3 28 12 5 9 18 16 29 16 19 0
18 -4 -12 -59 -18 -33 -59 -91 -91 -128 -32 -37 -56 -74 -53 -81 3 -8 5 -23 5
-33 0 -16 5 -19 23 -14 12 4 29 16 37 28 8 12 32 41 53 65 20 24 37 49 37 57
0 22 64 125 78 125 18 0 15 -31 -8 -67 -20 -33 -24 -55 -22 -110 1 -21 7 -33
16 -33 8 0 16 -5 18 -11 2 -7 28 -12 63 -12 44 1 72 -6 105 -23 129 -68 181
-86 230 -79 69 9 106 52 115 130 3 33 10 64 14 70 12 16 11 56 -1 49 -6 -4 -6
2 1 15 16 28 0 27 -28 -3 -26 -28 -52 -38 -134 -57 -64 -14 -108 -8 -206 29
-57 21 -81 43 -81 74 0 11 -15 28 -35 39 -36 22 -38 39 -4 39 11 0 24 -11 31
-24 10 -23 12 -24 34 -9 13 8 24 12 24 7 0 -5 7 1 15 13 10 14 13 39 11 79 -6
108 30 282 66 321 16 17 19 29 14 58 l-7 37 -52 -3 c-87 -5 -145 0 -159 14
-39 36 -94 47 -129 27z m202 -140 c12 0 15 -7 11 -26 -5 -29 -48 -52 -66 -34
-5 5 -29 10 -51 10 -54 0 -60 8 -33 38 20 21 29 23 73 18 28 -3 57 -6 66 -6z
m-60 -140 c54 0 56 -1 52 -24 -5 -22 -7 -23 -46 -14 -23 5 -59 7 -79 5 -31 -4
-38 -2 -38 12 0 25 11 33 35 27 11 -3 45 -6 76 -6z m-35 -115 c16 -8 39 -15
52 -15 12 0 22 -3 22 -8 0 -11 -104 -34 -123 -26 -24 9 -30 37 -11 51 22 16
26 16 60 -2z"/>
<path d="M505 949 c-22 -4 -54 -11 -71 -15 -26 -5 -31 -11 -32 -35 0 -15 -5
-36 -10 -45 -5 -9 -7 -37 -5 -63 3 -32 1 -42 -5 -32 -6 8 -19 12 -29 9 -18 -5
-19 -2 -10 54 13 78 0 108 -46 108 -18 0 -38 -5 -45 -12 -6 -6 -33 -11 -61 -9
-41 2 -52 -2 -65 -21 -9 -12 -16 -32 -16 -43 0 -11 -7 -33 -15 -49 -30 -56
-13 -156 26 -156 12 0 52 22 61 34 3 5 21 10 40 11 18 1 42 5 53 10 17 7 17 4
-5 -20 -26 -29 -86 -60 -132 -69 -37 -6 -115 -73 -121 -102 -2 -13 -1 -24 2
-24 3 0 11 -10 16 -22 6 -13 15 -23 20 -23 6 0 15 -3 20 -7 14 -8 26 0 46 31
9 15 35 30 71 41 l55 17 7 -103 c7 -114 -1 -168 -39 -246 -27 -56 -33 -119
-12 -136 23 -19 66 -24 102 -12 34 11 37 15 31 42 -3 16 -1 49 5 73 l11 43 71
7 c40 3 86 2 102 -3 25 -8 73 -1 76 10 0 2 3 24 6 50 5 45 4 46 -26 53 -47 10
-34 55 15 55 28 0 35 10 27 38 -4 15 -18 25 -47 34 l-41 11 34 8 c40 8 58 26
63 59 3 22 -1 25 -32 28 -47 5 -60 19 -28 31 62 23 42 111 -21 94 -20 -5 -21
-3 -15 21 4 17 0 35 -11 52 -21 32 -15 38 19 23 23 -11 28 -10 41 7 8 10 15
24 15 29 5 38 9 65 15 98 6 29 4 42 -10 57 -19 21 -35 23 -100 9z m0 -99 c-3
-5 -11 -10 -16 -10 -6 0 -7 5 -4 10 3 6 11 10 16 10 6 0 7 -4 4 -10z m-263
-57 c-7 -3 -16 -2 -19 1 -4 3 2 6 13 5 11 0 14 -3 6 -6z m194 -67 c16 6 17 5
7 -7 -7 -7 -13 -21 -13 -31 0 -13 -8 -18 -31 -18 -26 0 -30 3 -24 18 4 9 10
25 12 35 4 13 9 15 18 7 7 -6 21 -7 31 -4z m-24 -158 c53 -16 48 -42 -10 -46
-41 -3 -42 -2 -42 28 0 34 -1 34 52 18z m18 -151 c0 -5 -14 -7 -31 -3 -17 3
-35 6 -40 6 -5 0 -9 6 -9 14 0 11 8 11 40 3 22 -6 40 -15 40 -20z m-8 -88 c21
-11 21 -12 3 -25 -10 -8 -29 -14 -42 -14 -18 0 -23 6 -23 25 0 28 25 34 62 14z"/>
</g>
</g></g></g><g transform="translate(528,0)"><g transform="translate(0,0) scale(1,1)"><g transform="scale(2.9464285714285716,2.9464285714285716) translate(19.599999999999994,37.099999999999994)"><g transform="translate(0.000000,105.000000) scale(0.100000,-0.100000)"
fill="#001dcc" stroke="none">
<path d="M622 1024 c-12 -8 -22 -21 -22 -27 0 -7 -20 -34 -45 -60 -25 -27 -45
-51 -45 -55 0 -21 43 -72 64 -78 33 -8 40 -32 37 -134 -5 -203 -30 -348 -77
-445 -43 -88 -51 -130 -30 -178 l15 -38 31 16 c36 19 42 32 65 140 9 44 27
108 40 141 28 73 57 188 57 226 -1 24 5 29 41 39 122 33 126 38 147 189 5 36
17 92 26 126 13 49 14 66 4 84 -11 20 -17 22 -59 15 -25 -4 -50 -6 -56 -6 -5
1 -29 3 -52 5 -26 1 -54 12 -77 29 -41 32 -36 31 -64 11z m198 -163 c0 -20
-46 -36 -56 -19 -3 4 -10 6 -15 3 -5 -4 -9 3 -9 14 0 18 6 21 40 21 33 0 40
-4 40 -19z m-20 -146 c0 -22 -4 -25 -35 -25 -22 0 -35 5 -35 13 0 20 22 37 47
37 18 0 23 -6 23 -25z"/>
<path d="M1243 1004 c-35 -50 -51 -63 -73 -57 -12 3 -24 12 -27 19 -3 8 -17
13 -32 12 -14 -1 -36 2 -48 6 -38 12 -82 -38 -90 -101 -3 -28 -2 -60 2 -70 4
-10 9 -58 9 -107 2 -70 0 -85 -10 -72 -9 13 -17 14 -38 6 -14 -5 -26 -16 -26
-25 0 -8 -8 -15 -18 -15 -10 0 -23 -5 -29 -11 -6 -6 -22 -17 -35 -23 -16 -8
-24 -22 -26 -46 -2 -21 -12 -42 -24 -51 -17 -13 -19 -19 -9 -38 10 -18 17 -56
20 -117 1 -6 10 -23 21 -37 l20 -25 40 19 c21 10 43 19 48 19 16 0 22 -29 12
-56 -14 -37 -12 -55 11 -93 l20 -33 21 22 c17 18 20 35 20 91 0 52 3 69 13 69
8 0 37 5 64 11 46 10 49 12 35 26 -9 9 -13 26 -10 42 7 47 19 86 28 97 18 24
-15 58 -35 37 -4 -4 -30 -7 -57 -7 -40 -1 -51 3 -58 20 -9 19 -7 20 48 16 50
-4 60 -2 69 16 13 25 -9 47 -40 39 -41 -11 -4 10 46 26 113 35 124 37 131 15
3 -11 4 -22 1 -24 -3 -3 1 -29 7 -57 7 -29 11 -76 8 -105 -2 -32 1 -59 8 -67
7 -8 11 -31 10 -52 -8 -125 2 -239 20 -228 5 3 18 -3 29 -14 20 -20 20 -20 37
12 19 37 35 107 24 107 -5 0 -6 39 -3 88 6 113 4 142 -12 191 -10 32 -18 224
-15 378 2 143 1 152 -18 162 -35 19 -70 13 -89 -15z m-36 -150 c27 -19 -18
-37 -72 -28 -41 6 -56 20 -38 38 11 11 92 4 110 -10z m3 -119 c0 -29 -32 -46
-90 -49 -29 -1 -35 3 -35 19 0 15 9 21 44 27 25 4 49 12 55 18 17 17 26 11 26
-15z m-289 -228 c7 -24 5 -27 -19 -26 -15 1 -38 4 -51 8 -25 7 -25 7 10 29 41
26 51 24 60 -11z m157 -62 c2 -18 -3 -21 -37 -22 -47 -2 -63 14 -35 34 27 20
68 13 72 -12z m-158 -15 c0 -5 -6 -10 -12 -10 -7 0 -24 -3 -38 -6 -24 -6 -25
-6 -5 9 22 18 55 22 55 7z m130 -70 c0 -15 -7 -20 -25 -20 -18 0 -25 5 -25 20
0 15 7 20 25 20 18 0 25 -5 25 -20z m-120 -6 c0 -8 -8 -14 -17 -14 -10 0 -28
-3 -40 -6 -18 -5 -23 -2 -23 12 0 15 8 19 40 21 28 1 40 -3 40 -13z"/>
<path d="M202 992 c-32 -16 -45 -41 -42 -82 6 -67 57 -107 103 -78 28 17 57
16 107 -7 38 -17 42 -17 87 0 26 10 42 20 35 23 -7 2 -19 17 -27 33 -9 16 -31
35 -49 43 -19 8 -37 23 -40 33 -15 47 -109 65 -174 35z"/>
<path d="M265 761 c-7 -7 -13 -8 -49 -10 -14 0 -31 -8 -39 -16 -8 -8 -17 -12
-19 -9 -3 2 -19 -9 -37 -25 -23 -22 -31 -38 -31 -63 0 -53 31 -75 116 -83 64
-6 73 -5 85 13 8 10 46 29 86 42 40 12 78 29 85 38 12 14 7 21 -48 59 -50 36
-136 67 -149 54z"/>
<path d="M393 485 c-18 -6 -48 -25 -65 -42 -38 -36 -163 -117 -196 -127 -12
-4 -29 -23 -37 -42 -8 -19 -28 -42 -44 -52 -17 -9 -33 -22 -35 -27 -6 -16 37
-103 53 -110 8 -3 36 6 62 20 27 14 55 25 63 25 15 0 76 65 76 81 0 6 43 60
95 120 52 59 95 111 95 114 0 4 -8 17 -17 29 -16 19 -22 20 -50 11z"/>
<path d="M1055 245 c-32 -31 -28 -47 11 -56 16 -3 39 -11 51 -17 25 -14 63
-16 63 -4 0 4 -22 30 -50 56 l-49 47 -26 -26z"/>
<path d="M801 213 c-33 -34 -49 -79 -33 -95 7 -7 25 3 59 35 l48 46 -22 22
-22 22 -30 -30z"/>
</g>
</g></g></g><g transform="translate(1056,0)"><g transform="translate(0,0) scale(1,1)"><g transform="scale(2.578125,2.578125) translate(32.400000000000006,22.400000000000006)"><g transform="translate(0.000000,160.000000) scale(0.100000,-0.100000)"
fill="#001dcc" stroke="none">
<path d="M451 1540 c-28 -22 -60 -58 -70 -79 -20 -38 -20 -38 -63 -30 -91 17
-142 11 -189 -23 -88 -64 -99 -93 -64 -165 33 -65 68 -81 133 -59 59 19 94 12
90 -18 -2 -16 -12 -22 -43 -26 -38 -6 -126 -47 -133 -62 -2 -5 -8 -8 -14 -8
-12 0 -43 -35 -64 -73 -47 -87 17 -212 91 -179 32 15 42 39 26 65 -11 17 -9
23 15 43 22 19 39 24 86 24 32 0 58 -1 58 -2 0 -11 -49 -128 -82 -198 -22 -47
-46 -101 -53 -121 -17 -46 -54 -120 -70 -139 -35 -42 -23 -124 18 -118 17 2
24 17 37 69 13 50 34 90 88 169 40 57 72 113 72 125 0 34 29 110 50 133 11 12
19 29 18 39 -5 67 7 76 117 77 84 2 115 16 115 54 0 15 -4 32 -8 38 -8 13
-178 48 -192 39 -8 -5 4 54 12 60 18 12 81 35 111 40 22 4 50 17 64 29 24 21
25 25 14 59 -14 40 -52 67 -96 67 -31 0 -32 10 -2 47 12 15 31 45 41 66 l19
37 -33 30 c-19 17 -37 30 -41 30 -4 0 -30 -18 -58 -40z"/>
<path d="M824 1318 c-16 -14 -37 -27 -47 -31 -35 -13 -42 -51 -24 -130 9 -40
16 -81 16 -92 0 -11 1 -48 4 -83 4 -59 7 -66 45 -101 51 -48 89 -55 145 -27
23 11 44 23 47 27 3 3 23 9 45 12 169 25 175 27 175 53 0 8 9 25 20 37 17 18
22 19 30 8 6 -11 12 -5 25 24 8 22 20 42 26 45 5 4 18 30 29 60 15 40 17 57 9
73 -8 14 -8 31 1 62 11 39 10 45 -9 64 -23 23 -70 28 -89 9 -29 -29 -88 -42
-186 -41 -83 1 -104 5 -127 22 -15 11 -45 23 -66 27 -32 5 -44 2 -69 -18z
m369 -180 c-3 -18 -12 -47 -19 -64 l-13 -32 -88 2 -88 1 -3 33 c-3 30 -1 32
26 32 37 0 159 37 167 50 13 22 24 8 18 -22z"/>
<path d="M438 899 c-24 -40 -23 -43 15 -119 29 -59 35 -65 72 -72 52 -11 68 8
61 72 -6 63 -11 72 -56 98 -22 12 -40 29 -40 37 0 26 -34 16 -52 -16z"/>
<path d="M957 759 c-13 -23 -23 -29 -50 -29 -55 0 -97 11 -97 26 0 8 -3 15 -7
15 -48 7 -70 6 -94 -7 -16 -8 -29 -19 -29 -25 0 -6 -8 -9 -18 -7 -9 1 -27 -7
-40 -20 -15 -15 -34 -22 -61 -22 -31 0 -44 -6 -60 -26 -26 -33 -26 -42 0 -70
19 -20 22 -37 25 -141 3 -115 -14 -235 -37 -258 -5 -5 -9 -17 -9 -28 0 -10 -5
-15 -10 -12 -6 4 -10 -8 -10 -29 0 -19 5 -38 10 -41 6 -3 10 -15 10 -26 0 -11
11 -24 26 -31 22 -10 27 -9 35 5 6 9 21 17 34 17 14 0 30 9 37 20 7 11 19 20
26 20 7 0 15 6 18 14 3 8 24 22 47 31 23 9 50 24 60 32 17 16 35 14 147 -14 8
-3 48 -6 88 -8 66 -3 74 -1 87 19 8 13 14 33 14 47 -1 13 7 45 17 72 18 46 18
49 -1 115 -23 79 -23 194 0 229 23 35 17 64 -24 115 -7 10 -11 23 -8 31 4 10
-9 13 -52 14 -53 1 -58 -2 -74 -28z m-116 -202 c86 5 96 4 103 -12 10 -27 -3
-34 -74 -40 -36 -3 -81 -10 -100 -16 -60 -18 -84 -9 -94 34 -12 47 3 61 43 41
19 -10 50 -12 122 -7z m92 -176 c7 -1 7 -25 -2 -90 -1 -2 -12 -1 -26 1 -14 3
-64 -1 -113 -8 -120 -18 -122 -18 -122 10 0 27 21 49 41 41 8 -3 41 9 74 25
47 24 69 30 100 26 22 -3 44 -5 48 -5z"/>
<path d="M490 325 c0 -5 -3 -20 -6 -32 -4 -13 -2 -23 4 -23 15 0 23 30 12 48
-5 10 -10 13 -10 7z"/>
</g>
</g></g></g><g transform="translate(1584,0)"><g transform="translate(0,0) scale(1,1)"><g transform="scale(2.9464285714285716,2.9464285714285716) translate(19.599999999999994,24.599999999999994)"><g transform="translate(0.000000,130.000000) scale(0.100000,-0.100000)"
fill="#001dcc" stroke="none">
<path d="M831 1260 c-36 -35 -39 -52 -11 -80 18 -18 19 -23 6 -48 -24 -46 -63
-82 -90 -82 -14 0 -27 4 -30 9 -3 5 -16 11 -28 14 -13 3 -48 15 -78 26 -48 17
-57 18 -81 5 -82 -42 -114 -127 -56 -147 23 -7 31 -6 43 9 14 18 14 17 4 -5
-9 -18 -9 -34 0 -67 11 -39 10 -51 -14 -124 -66 -206 -171 -329 -291 -344 -22
-2 -67 -8 -100 -12 -64 -7 -100 -30 -85 -55 6 -8 4 -16 -3 -21 -9 -6 -9 -8 1
-8 6 0 12 -6 12 -13 0 -8 9 -22 20 -32 26 -24 117 -22 163 3 18 11 47 17 67
15 31 -3 38 2 62 36 15 22 51 58 80 81 88 70 162 241 162 375 0 44 -14 156
-20 166 -2 4 13 2 34 -3 73 -19 168 -29 225 -23 l57 6 0 -30 c0 -16 -4 -32 -9
-35 -5 -3 -37 3 -71 14 -36 12 -73 17 -89 14 -37 -9 -91 -52 -91 -73 0 -25 36
-55 56 -47 10 4 55 9 101 11 69 4 83 3 83 -10 0 -12 -14 -15 -66 -15 -59 0
-68 -3 -95 -29 -16 -16 -39 -31 -51 -33 -27 -4 -35 -33 -15 -56 9 -10 17 -48
20 -94 8 -95 15 -128 35 -150 18 -22 55 -23 71 -4 7 8 24 13 39 11 15 -2 37
-4 50 -4 23 -1 32 -34 11 -46 -6 -4 -77 -7 -159 -6 -93 1 -151 -2 -155 -9 -3
-6 -10 -8 -15 -5 -4 3 -22 -11 -39 -31 -25 -28 -31 -42 -27 -71 4 -36 18 -53
47 -53 16 0 137 46 154 60 6 4 37 10 70 14 33 3 74 9 91 12 l31 6 7 -89 c14
-174 19 -189 58 -169 15 8 29 11 33 8 3 -4 3 1 0 10 -4 9 0 18 9 21 13 5 15
23 12 100 l-4 94 60 6 c68 6 133 -9 174 -42 51 -40 130 -18 160 45 19 40 25
150 8 147 -5 -1 -62 -4 -125 -7 -63 -3 -127 -9 -144 -15 -16 -5 -49 -12 -72
-15 -41 -6 -43 -5 -43 19 0 23 3 25 52 25 37 0 61 6 84 22 27 19 32 29 37 79
4 31 18 87 32 125 37 98 38 101 31 128 -8 32 -40 37 -105 16 -28 -10 -70 -20
-91 -23 -33 -4 -40 -2 -40 11 0 26 11 36 60 54 108 40 180 73 180 82 0 6 -4
17 -9 25 -8 12 -22 10 -88 -14 -43 -16 -80 -31 -83 -34 -3 -3 -16 -6 -30 -6
-17 0 -26 7 -29 20 -2 11 -12 26 -23 34 -22 15 -26 13 92 55 25 9 55 22 68 28
13 7 34 11 48 10 17 -1 28 6 39 29 33 62 -17 75 -137 35 -80 -27 -237 -61
-245 -53 -2 3 7 13 21 22 14 10 26 21 26 27 0 5 9 21 20 36 21 29 33 112 17
112 -6 0 -7 3 -4 6 6 6 -34 44 -46 44 -2 0 -18 -14 -36 -30z m269 -592 c0 -33
-1 -33 -50 -34 -46 -1 -50 1 -50 22 0 20 5 24 33 24 17 0 39 5 47 10 21 13 20
14 20 -22z m-241 -12 c13 -16 -4 -26 -44 -26 -60 0 -74 27 -17 33 20 2 40 4
43 5 4 1 12 -4 18 -12z m218 -120 c-4 -11 -19 -16 -47 -16 -52 0 -54 23 -2 36
41 11 58 4 49 -20z m-217 -11 c0 -17 -23 -25 -69 -25 -41 0 -52 6 -45 23 6 17
114 19 114 2z"/>
</g>
</g></g></g></g></g></svg>